# xmcd CD database file
#
# Track frame offsets:
#	182
#	9590
#	21007
#	32367
#	52982
#	65445
#	95267
#	111935
#	145812
#	167847
#	214500
#	223412
#	234520
#	243795
#	281770
#	292610
#	300872
#
# Disc length: 4166 seconds
#
# Revision: 1
# Processed by: cddbd v1.5.2PL0 Copyright (c) Steve Scherf et al.
# Submitted via: CDex 1.51
#
DISCID=de104411
DTITLE=Various Artist - Momente der Entspannung
DYEAR=1900
DGENRE=New Age
TTITLE0=Sonja Posini - My Life
TTITLE1=Fabian Wömpner - Nature
TTITLE2=Dick Nelson - Over
TTITLE3=T.Barting - Harmony
TTITLE4=Nils svensson - Garden
TTITLE5=Sandra Padberge - Blue
TTITLE6=Frank Eels - Darkness
TTITLE7=Thomas Gepperti - Trance
TTITLE8=Nick Leisure - Tunnel
TTITLE9=Damon Ashcroft - Black Wind
TTITLE10=Julie Anders - The Way
TTITLE11=Willi Storm - Carmel
TTITLE12=Alice Anne - Freedom
TTITLE13=R. Refill - Universum
TTITLE14=Peter Spark - Sara
TTITLE15=Sam Clark - Blue Wind
TTITLE16=Frank Pit - This Land
EXTD=
EXTT0=
EXTT1=
EXTT2=
EXTT3=
EXTT4=
EXTT5=
EXTT6=
EXTT7=
EXTT8=
EXTT9=
EXTT10=
EXTT11=
EXTT12=
EXTT13=
EXTT14=
EXTT15=
EXTT16=
PLAYORDER=
